<svg xmlns="http://www.w3.org/2000/svg" width="70" height="70" viewBox="0 0 70 70" style="width: 100%; height: 100%;"><desc>Made with illustrio</desc>
  
<defs fill="none" stroke="none"><mask id="maskSivjjwi8n81f"><rect x="35" y="0" width="35" height="70" rx="0" ry="0" fill="#ffffff"></rect></mask></defs><g class="content"><g class="base"><g fill="none" fill-rule="evenodd" stroke="none" class="main-fill">
    
    
  </g><g fill="none" transform="translate(23 20)" stroke="none" class="main-fill">
      <path d="M18.9,19.9 C20.2,19 23.9,15.9 23.8,10.3 C23.6,3.9 19.6,0 13.5,0 C7.8,0 3.3,4.4 3.2,10.1 L0.3,16.3 C0.2,16.5 0.2,16.7 0.3,16.9 C0.4,17.1 0.6,17.2 0.8,17.2 L3.6,17.2 L3.6,19.8 L6.2,19.8 C6.6,19.8 6.8,20.1 6.8,20.4 C6.8,20.7 6.6,21 6.3,21 L3.7,21 L3.7,23.9 C3.7,24.3 4,24.5 4.3,24.5 L11.4,24.6 L11.4,28.7 C11.4,28.9 11.9,30 12,30 L12,30 L21,29.6 C21.2,29.6 21.4,29.2 21.5,29 C21.6,28.8 21.7,28.6 21.6,28.4 L18.9,19.9 L18.9,19.9 Z M13.5,16.1 C9.9,16.1 6.9,13.1 6.9,9.5 C6.9,5.9 9.9,2.9 13.5,2.9 C17.1,2.9 20.1,5.9 20.1,9.5 C20.1,13.2 17.1,16.1 13.5,16.1 L13.5,16.1 Z" fill="none" stroke="none" class="main-fill"></path>
      <path d="M13.4 13.7C13 13.7 12.8 13.4 12.8 13.1L12.8 10.8C12.8 10.4 13.1 10.2 13.4 10.2 14.3 10.2 15.4 9.3 15.4 8.2 15.4 7.1 14.5 6.2 13.5 6.2 12.4 6.2 11.6 7 11.6 8.1 11.6 8.5 11.3 8.7 11 8.7 10.6 8.7 10.4 8.4 10.4 8.1 10.4 6.3 11.8 5 13.6 5 15.4 5 16.8 6.5 16.8 8.3 16.8 9.9 15.5 11.2 14.2 11.5L14.2 13.2C14 13.4 13.7 13.7 13.4 13.7L13.4 13.7zM13.4 15.1C13.2 15.1 13.1 15 13 14.9 12.9 14.8 12.8 14.6 12.8 14.4 12.8 14.2 12.9 14.1 13 14 13.2 13.8 13.7 13.8 13.9 14 14 14.1 14.1 14.3 14.1 14.4 14.1 14.6 14 14.7 13.9 14.9 13.7 15 13.6 15.1 13.4 15.1L13.4 15.1z" fill="none" stroke="none" class="main-fill"></path>
    </g></g><g class="masked" mask="url('#maskSivjjwi8n81f')"><g fill="none" fill-rule="evenodd" stroke="none" class="main-fill--darken">
    
    
  </g><g fill="none" transform="translate(23 20)" stroke="none" class="main-fill--darken">
      <path d="M18.9,19.9 C20.2,19 23.9,15.9 23.8,10.3 C23.6,3.9 19.6,0 13.5,0 C7.8,0 3.3,4.4 3.2,10.1 L0.3,16.3 C0.2,16.5 0.2,16.7 0.3,16.9 C0.4,17.1 0.6,17.2 0.8,17.2 L3.6,17.2 L3.6,19.8 L6.2,19.8 C6.6,19.8 6.8,20.1 6.8,20.4 C6.8,20.7 6.6,21 6.3,21 L3.7,21 L3.7,23.9 C3.7,24.3 4,24.5 4.3,24.5 L11.4,24.6 L11.4,28.7 C11.4,28.9 11.9,30 12,30 L12,30 L21,29.6 C21.2,29.6 21.4,29.2 21.5,29 C21.6,28.8 21.7,28.6 21.6,28.4 L18.9,19.9 L18.9,19.9 Z M13.5,16.1 C9.9,16.1 6.9,13.1 6.9,9.5 C6.9,5.9 9.9,2.9 13.5,2.9 C17.1,2.9 20.1,5.9 20.1,9.5 C20.1,13.2 17.1,16.1 13.5,16.1 L13.5,16.1 Z" fill="none" stroke="none" class="main-fill--darken"></path>
      <path d="M13.4 13.7C13 13.7 12.8 13.4 12.8 13.1L12.8 10.8C12.8 10.4 13.1 10.2 13.4 10.2 14.3 10.2 15.4 9.3 15.4 8.2 15.4 7.1 14.5 6.2 13.5 6.2 12.4 6.2 11.6 7 11.6 8.1 11.6 8.5 11.3 8.7 11 8.7 10.6 8.7 10.4 8.4 10.4 8.1 10.4 6.3 11.8 5 13.6 5 15.4 5 16.8 6.5 16.8 8.3 16.8 9.9 15.5 11.2 14.2 11.5L14.2 13.2C14 13.4 13.7 13.7 13.4 13.7L13.4 13.7zM13.4 15.1C13.2 15.1 13.1 15 13 14.9 12.9 14.8 12.8 14.6 12.8 14.4 12.8 14.2 12.9 14.1 13 14 13.2 13.8 13.7 13.8 13.9 14 14 14.1 14.1 14.3 14.1 14.4 14.1 14.6 14 14.7 13.9 14.9 13.7 15 13.6 15.1 13.4 15.1L13.4 15.1z" fill="none" stroke="none" class="main-fill--darken"></path>
    </g></g></g><style>
          .main-fill {fill: #009ac8;}
          .main-stroke {stroke: #009ac8;}
          .secondary-fill {fill: #ff85f1;}
          .secondary-stroke {stroke: #ff85f1;}

          .main-fill--darken {fill: #005f7b;}
          .main-stroke--darken {stroke: #005f7b;}
          .secondary-fill--darken {fill: #ff38e8;}
          .secondary-stroke--darken {stroke: #ff38e8;}

          .main-fill--darkener {fill: #003848;}
          .main-stroke--darkener {stroke: #003848;}
          .secondary-fill--darkener {fill: #ff05e2;}
          .secondary-stroke--darkener {stroke: #ff05e2;}
        </style></svg>